<svg xmlns="http://www.w3.org/2000/svg" xmlns:xlink="http://www.w3.org/1999/xlink" version="1.1" width="16" height="16" viewBox="0 0 256 256" xml:space="preserve">

<defs>
</defs>
<g style="stroke: none; stroke-width: 0; stroke-dasharray: none; stroke-linecap: butt; stroke-linejoin: miter; stroke-miterlimit: 10; fill: none; fill-rule: nonzero; opacity: 1;" transform="translate(1.4065934065934016 1.4065934065934016) scale(2.81 2.81)" >
	<path d="M 87.006 36.488 c -0.001 -0.056 -0.004 -0.111 -0.008 -0.167 c -0.006 -0.078 -0.017 -0.154 -0.029 -0.231 c -0.007 -0.047 -0.008 -0.095 -0.018 -0.142 c -0.004 -0.022 -0.013 -0.042 -0.018 -0.064 c -0.001 -0.003 -0.002 -0.006 -0.003 -0.009 c -0.019 -0.081 -0.043 -0.16 -0.068 -0.239 c -0.014 -0.045 -0.022 -0.091 -0.039 -0.135 c -0.008 -0.021 -0.02 -0.039 -0.028 -0.06 c -0.002 -0.005 -0.003 -0.01 -0.005 -0.015 c -0.007 -0.018 -0.011 -0.038 -0.019 -0.057 c -0.023 -0.054 -0.055 -0.104 -0.081 -0.156 c -0.031 -0.063 -0.061 -0.126 -0.096 -0.186 c -0.023 -0.039 -0.046 -0.077 -0.071 -0.115 c -0.025 -0.039 -0.053 -0.075 -0.079 -0.112 c -0.036 -0.05 -0.072 -0.101 -0.111 -0.149 c -0.044 -0.054 -0.093 -0.104 -0.141 -0.156 c -0.03 -0.032 -0.057 -0.065 -0.088 -0.096 c -0.029 -0.028 -0.058 -0.054 -0.088 -0.081 c -0.018 -0.016 -0.032 -0.035 -0.05 -0.05 L 46.956 0.725 c -1.125 -0.967 -2.787 -0.967 -3.912 0 L 4.032 34.271 c -0.019 0.016 -0.033 0.035 -0.051 0.052 c -0.029 0.026 -0.058 0.052 -0.086 0.079 c -0.031 0.03 -0.057 0.063 -0.087 0.095 c -0.049 0.052 -0.098 0.103 -0.142 0.157 c -0.039 0.048 -0.075 0.099 -0.111 0.149 c -0.026 0.037 -0.054 0.072 -0.078 0.11 c -0.025 0.038 -0.048 0.076 -0.071 0.115 c -0.036 0.062 -0.067 0.127 -0.099 0.192 c -0.025 0.051 -0.056 0.099 -0.078 0.151 c -0.007 0.017 -0.011 0.036 -0.018 0.054 c -0.002 0.004 -0.003 0.009 -0.005 0.014 c -0.009 0.022 -0.021 0.042 -0.029 0.064 c -0.017 0.047 -0.026 0.095 -0.041 0.142 c -0.024 0.076 -0.047 0.151 -0.065 0.229 c -0.002 0.009 -0.006 0.018 -0.008 0.027 c -0.003 0.016 -0.01 0.03 -0.013 0.046 c -0.01 0.049 -0.011 0.098 -0.019 0.147 c -0.011 0.075 -0.022 0.15 -0.028 0.226 c -0.004 0.057 -0.007 0.113 -0.008 0.17 c 0 0.019 -0.006 0.037 -0.006 0.056 V 87 c 0 1.657 1.343 3 3 3 h 78.024 c 1.657 0 3 -1.343 3 -3 V 36.546 C 87.012 36.526 87.006 36.508 87.006 36.488 z M 45 6.957 l 30.922 26.589 H 14.078 L 45 6.957 z M 8.988 84 V 43.082 l 34.056 29.284 c 0.563 0.483 1.259 0.726 1.956 0.726 s 1.394 -0.242 1.956 -0.726 l 34.056 -29.284 V 84 H 8.988 z" style="stroke: none; stroke-width: 1; stroke-dasharray: none; stroke-linecap: butt; stroke-linejoin: miter; stroke-miterlimit: 10; fill: rgb(0,0,0); fill-rule: nonzero; opacity: 1;" transform=" matrix(1 0 0 1 0 0) " stroke-linecap="round" />
</g>
</svg>
