<svg xmlns="http://www.w3.org/2000/svg" xmlns:xlink="http://www.w3.org/1999/xlink" version="1.1" width="16" height="16" viewBox="0 0 256 256" xml:space="preserve">

<defs>
</defs>
<g style="stroke: none; stroke-width: 0; stroke-dasharray: none; stroke-linecap: butt; stroke-linejoin: miter; stroke-miterlimit: 10; fill: none; fill-rule: nonzero; opacity: 1;" transform="translate(1.4065934065934016 1.4065934065934016) scale(2.81 2.81)" >
	<path d="M 77.539 78.772 H 12.46 C 5.59 78.772 0 73.183 0 66.312 V 23.688 c 0 -6.871 5.59 -12.46 12.46 -12.46 h 65.079 c 6.871 0 12.461 5.59 12.461 12.46 v 42.624 C 90 73.183 84.41 78.772 77.539 78.772 z M 12.46 17.228 c -3.563 0 -6.46 2.898 -6.46 6.46 v 42.624 c 0 3.563 2.898 6.461 6.46 6.461 h 65.079 c 3.563 0 6.461 -2.898 6.461 -6.461 V 23.688 c 0 -3.563 -2.898 -6.46 -6.461 -6.46 H 12.46 z" style="stroke: none; stroke-width: 1; stroke-dasharray: none; stroke-linecap: butt; stroke-linejoin: miter; stroke-miterlimit: 10; fill: rgb(0,0,0); fill-rule: nonzero; opacity: 1;" transform=" matrix(1 0 0 1 0 0) " stroke-linecap="round" />
	<path d="M 45 57.711 c -3.791 0 -7.429 -1.607 -9.982 -4.409 L 11.886 27.922 c -1.116 -1.225 -1.028 -3.122 0.196 -4.238 c 1.225 -1.116 3.123 -1.028 4.238 0.196 l 23.132 25.38 c 1.44 1.58 3.41 2.45 5.547 2.45 c 2.138 0 4.107 -0.87 5.547 -2.45 L 73.68 23.88 c 1.116 -1.226 3.013 -1.311 4.237 -0.196 c 1.225 1.116 1.313 3.014 0.196 4.238 L 54.981 53.302 C 52.429 56.104 48.79 57.711 45 57.711 z" style="stroke: none; stroke-width: 1; stroke-dasharray: none; stroke-linecap: butt; stroke-linejoin: miter; stroke-miterlimit: 10; fill: rgb(0,0,0); fill-rule: nonzero; opacity: 1;" transform=" matrix(1 0 0 1 0 0) " stroke-linecap="round" />
</g>
</svg>
